Patient4_TMGait_0pt2_01_right_16_EMG.mot
version=1
nRows=33
nColumns=33
inDegrees=no
endheader
time	1LAddLong	2LGlutMax	3LGlutMed	4LIliopsoas	5LSemiMemb	6LBicFemLong	7LRecFem	8LVastMed	9LVastLat	10LGasMed	11LTibAnt	12lTibPost	13LPeroneusLong	14LSol	15LExtDigLong	16LFlexDigLong	17RAddLong	18RGlutMax	19RGlutMed	20RIliopsoas	21RSemiMemb	22RBicFemLong	23RRecFem	24RVastMed	25RVastLat	26RGasMed	27RTibAnt	28RTibPost	29RPeroneusLong	30RSol	31RExtDigLong	32RFlexDigLong
36.275	0.011292	-0.068817	-0.00473	0.003204	0.013733	0.045776	-0.005951	0.00946	0.001984	0.034637	0.018463	0.007629	0.067749	0.062256	-0.00946	0.000458	0.020752	0.077972	-0.10971	0.067749	0.056305	-0.14328	0.14496	0.25223	-0.069275	-0.017242	-0.12054	-0.005951	0.043488	-0.012817	-0.00351	-0.011444
36.276	-0.002289	-0.07431	-0.020294	0	-0.000458	0.097809	-0.00946	0.000305	0.005493	0.006561	-0.011902	0.001831	0.2533	0.075226	0.006409	0.005188	0.029449	0.10849	-0.019073	0.032654	-0.053253	-0.11414	0.13123	0.19989	-0.083923	-0.010834	0.028381	-0.010681	0.085144	0.037384	-0.003204	-0.018311
36.277	0.00885	-0.039368	0.045776	-0.003052	0.000763	0.052032	-0.016785	0.003662	0.011444	0.010681	-0.047302	0.01297	0.10941	-0.019226	0.023499	0.001068	0.066071	0.121	-0.058441	0.021667	-0.089417	-0.19562	0.12772	0.066223	-0.067596	-0.015106	0.028839	-0.006256	0.052795	0.00946	-0.000305	-0.026245
36.278	0.004883	-0.039825	0.059814	0.005646	0.024109	0.01297	-0.014954	-0.00351	0.013275	0.012665	-0.028839	0.007935	-0.087433	-0.14389	0.022888	0.007629	0.098419	0.14694	-0.065308	-0.010834	0.014496	-0.28732	0.12283	-0.11169	-0.089874	-0.019684	-0.014191	-0.005188	0.087891	-0.038605	-0.004883	-0.023346
36.279	0.006409	-0.048981	0.058441	0.00946	0.049286	0.037842	-0.013275	-0.001678	0.007019	-0.001678	-0.011902	0.01358	-0.075226	-0.10346	0.029449	0.002899	0.036469	0.1947	0.25421	-0.029907	0.1091	-0.32501	0.1004	-0.25009	-0.062561	-0.027771	-0.023804	-0.004578	0.050964	-0.090942	-0.001678	-0.0177
36.28	0.002289	-0.053864	0.052643	0.010681	0.033417	0.054626	-0.005951	0.001678	0.006561	-0.011597	-0.001984	0.012054	-0.04776	-0.11032	0.036011	-0.003204	0.009308	0.15595	0.46692	0.013428	0.012054	-0.27374	0.015106	-0.2298	-0.007019	-0.032501	-0.046234	-0.003204	0.022278	-0.050964	-0.001831	-0.020599
36.281	0.003815	-0.038147	0.04425	0.014801	0.012207	0.034485	-0.009766	-0.003204	-0.000763	-0.005035	0.00412	0.010834	-0.03952	-0.064087	0.027771	-0.003052	-0.006714	0.12787	0.46051	0.066681	-0.2272	-0.19043	0.056	-0.001068	0.071564	-0.06134	-0.021667	-0.009003	-0.069427	0.064545	-0.001831	-0.024261
36.282	-0.000305	-0.047455	0.027618	0.000763	0.001984	-0.019836	-0.028229	0.001678	0.006409	-0.004425	0.000763	0.006561	-0.018158	0.028229	0.024872	-0.009918	-0.014496	0.022888	0.49271	0.027008	-0.29358	0.000153	0.073395	0.045776	0.0914	-0.06546	0.012207	-0.012665	-0.12741	0.005035	-0.001831	-0.018616
36.283	0.00946	-0.045929	0.040436	-0.00824	0.004425	-0.011139	-0.031738	0.002899	0.006409	-0.010986	-0.000916	0.002136	-0.00473	0.072021	0.013885	-0.001984	-0.043335	-0.046844	0.10391	0.014648	0.12039	0.047302	-0.022278	0.084381	0.12146	-0.062408	0.027466	-0.014954	-0.14236	-0.001221	-0.003357	-0.020599
36.284	-0.001678	-0.04776	0.084991	0.005493	0.006866	-0.005341	-0.016632	0.000305	-0.00061	0.006561	-0.039368	0.008698	0.020294	0.056305	-0.003662	0.004272	-0.045471	-0.048523	-0.11246	0.007172	0.46982	-0.013123	-0.1091	0.12085	0.19959	-0.055389	0.019379	-0.014954	-0.020142	0.11139	-0.002899	-0.016174
36.285	0.00412	-0.081635	0.051575	0.021362	0.006409	-0.011444	-0.025024	0.005646	0.005188	0.010376	-0.096893	0.008392	-0.00473	0.028229	-0.005188	0.005341	-0.024872	-0.090942	0.035858	0.037537	0.36529	-0.095062	-0.16922	0.14404	0.14542	-0.027466	0.009155	-0.011444	0.14664	0.31632	-0.002899	-0.000916
36.286	0.009613	-0.079498	-0.047302	0.015717	-0.007782	-0.017853	-0.037079	0.011749	0.005341	0.020294	-0.17364	0.003967	-0.028229	0.014496	0.010071	0.000916	0.010071	-0.1593	-0.26581	0.06958	0.20371	-0.087128	-0.048981	-0.2594	0.024567	0.019073	-0.002441	-0.002136	0.21347	0.44571	-0.001678	-0.003357
36.287	-0.06897	-0.068512	-0.062103	0.007629	-0.002594	-0.022125	-0.032043	0.003357	-0.003662	-0.011292	-0.16876	0.005341	0.032654	0.029297	0.081177	0.003967	-0.005493	-0.15945	-0.31525	0.084991	-0.10727	-0.016479	0.01709	-0.32806	0.11231	0.034637	0.023804	-0.005646	0.1738	0.34027	0.002289	-0.006104
36.288	0.056763	-0.044403	0.041962	-0.00061	-0.00473	-0.013428	-0.029297	0.007172	-0.006714	-0.0354	-0.072174	0.005646	0.14404	0.038147	0.18082	0.006866	0.001068	-0.23453	0.087891	0.017853	0.01236	-0.11688	0.030975	-0.27054	0.73257	0.00412	0.10284	-0.006561	-0.005341	0.13779	-0.004883	-0.011597
36.289	-0.032501	0.016785	0.092773	0.011292	0.007019	-0.022125	-0.046539	0.000916	-0.007172	-0.024719	0.12039	0.007172	0.082855	0.061188	0.10681	0.010223	0.022278	-0.28061	-0.041656	-0.011444	0.073242	-0.19699	0.13733	-0.093689	0.83008	-0.021973	0.19974	-0.011139	-0.099182	-0.27679	-0.001526	-0.016937
36.29	-0.004425	-0.026093	0.11276	0.012054	-0.018616	-0.000763	-0.059509	0.006714	-0.005798	-0.040588	0.21988	0.000305	0.089264	0.048523	-0.057831	0.000916	0.070953	-0.39246	0.074005	-0.056915	0.054474	-0.22797	0.30945	0.26398	0.54031	-0.023193	0.65567	-0.002899	-0.23499	-0.35812	-0.001221	-0.013733
36.291	0.007629	-0.049896	0.07782	0.009766	-0.001373	0.022736	-0.062103	0.010986	-0.000458	-0.039673	0.18494	0.001831	0.037537	0.084076	-0.14999	0.005341	0.094757	-0.43091	-0.39871	-0.054321	0.006409	-0.16464	0.37582	0.087738	0.082245	-0.019531	0.85068	-0.004425	-0.14618	-0.4512	-0.005341	-0.01236
36.292	0.003967	-0.05722	0.098572	0.014343	-0.037384	0.006256	-0.059662	0	0.009003	-0.018311	0.20111	0.016327	-0.079346	0.09903	-0.13687	0.00824	0.121	-0.44968	-0.43182	-0.055084	0.073853	-0.14114	0.30624	-0.10254	-0.32577	-0.005341	0.26504	-0.007172	0.13748	-0.53833	-0.001984	-0.00473
36.293	-0.005035	-0.047455	0.075226	0.005798	-0.013885	0.023346	-0.058899	0.005341	0.008698	-0.013733	0.11795	0.006256	-0.075531	0.069275	0.089874	-0.003815	0.11749	-0.35736	-0.29953	-0.029602	0.062103	-0.073395	0.089874	-0.043182	-0.68848	-0.013428	-0.62149	-0.00412	0.2179	-0.52902	-0.001678	-0.004578
36.294	0.001068	-0.049744	0.036926	-0.001221	0.018463	0.057373	-0.054474	0.001831	0.012512	-0.037537	-0.10346	0.004883	0.13153	0.087891	0.023041	0.009155	0.076294	-0.36423	0.18601	-0.006561	0.056915	-0.067749	-0.16556	-0.10757	-1.0269	-0.028534	-1.1365	-0.010529	0.13611	-0.46707	-0.000305	-0.008545
36.295	0.00061	-0.049744	0.04303	0.009766	0.033112	0.089569	-0.071259	0.001678	0.001831	-0.013123	-0.075989	0.007629	0.048523	0.027161	0.19669	-0.003815	0.050964	-0.35248	0.53726	0.067139	-0.089111	0.039673	-0.22232	-0.16129	-0.77591	-0.025482	0.043182	-0.002289	-0.027313	-0.439	0.000763	-0.015259
36.296	-0.008545	-0.027466	0.023041	0.014801	0.002136	0.12314	-0.054169	0.005188	0.017548	0.006409	0.001678	0.005646	-0.003662	-0.038605	-0.22553	0.012665	-0.011139	-0.36163	0.14389	0.11002	-0.092316	0.066681	-0.18112	-0.09903	-0.23361	-0.019989	0.2771	-0.00351	-0.076599	-0.30319	-0.002289	0
36.297	-0.006409	-0.045319	0.034637	0.010986	-0.013733	0.075073	-0.080719	0.00824	0.017853	-0.014038	-0.019226	0.015106	0.034332	-0.033569	-0.28809	0.007172	0.010223	-0.32791	0.019684	0.080109	-0.40619	0.060425	0.006409	-0.049896	-0.030975	-0.010986	-0.15717	-0.011597	-0.049896	0.062408	0	-0.004883
36.298	-0.003815	-0.042572	0.010223	0.011139	-0.050354	0.022125	-0.073395	0.005035	0.029297	-0.001526	-0.002899	0.005951	0.028381	-0.095825	0.055847	-0.000916	0.007019	-0.28686	0.37231	0.04425	-0.31006	-0.004272	0.053558	0.14648	0.071106	-0.01297	-0.72449	-0.006104	-0.057526	0.099945	-0.000916	-0.001678
36.299	0.002289	-0.028839	0.026855	0.014343	-0.027313	0.004578	-0.077972	-0.001831	0.020599	0.007629	0.028992	0.002441	0.011902	-0.12634	-0.43457	-0.002136	-0.007019	-0.25543	0.45792	0.007629	0.073853	-0.021667	0.055084	0.18082	0.10712	-0.000153	0.11017	-0.006256	0.018768	0.15106	-0.001831	0.001678
36.3	0.005951	-0.040588	0.033722	-0.009155	-0.006104	-0.035095	-0.068359	-0.011597	0.020294	0.001678	-0.01236	0.000763	0.009918	-0.1648	-0.17899	-0.007629	-0.012512	-0.21851	0.089417	0.027466	0.15335	0.000305	0.13947	-0.036163	0.14908	0.001984	0.10254	-0.006409	0.16617	-0.10223	-0.000916	0.003204
36.301	0.011139	-0.034485	0.036621	0.004425	0.025787	-0.11429	-0.046234	0.007019	0.023651	0.00351	-0.018463	0.008698	0.032959	-0.15488	-0.11414	0.000153	-0.081482	-0.17822	0.037537	0.01709	0.01236	0.070953	0.04364	-0.034332	0.18051	-0.00824	-0.25528	-0.008392	0.078583	-0.30655	-0.009918	-0.002136
36.302	0.011292	-0.03006	0.048065	0.002441	0.058441	-0.159	-0.035248	0.001373	0.007324	0.009613	0.007629	0.003815	0.00824	-0.078583	-0.014343	-0.012665	-0.065918	-0.043793	-0.13534	0.024414	-0.29678	0.11108	-0.062714	0.099487	0.1886	-0.009766	-0.25085	-0.018005	0.23727	-0.041351	-0.004425	-0.005188
36.303	0.00824	-0.007782	0.034637	0.007324	0.042877	-0.095367	-0.04303	0.003967	0.015106	-0.002441	-0.006256	-0.000458	0.00885	-0.06073	0.023499	-0.002594	-0.007172	0.034637	-0.22705	0.003815	-0.71426	0.075226	-0.12619	0.22537	0.20218	-0.012512	-0.34409	-0.014191	0.3064	0.004425	-0.00885	-0.005035
36.304	0.008698	-0.021057	-0.001984	0.005188	0.033417	-0.090027	-0.045471	-0.002899	0.024414	0.002747	-0.090637	-0.004425	0.026245	-0.082703	0.090637	0.001831	-0.04715	-0.02182	-0.50568	-0.046844	-0.81741	0.15671	-0.10605	0.21378	0.19089	-0.018005	-0.37064	-0.015411	0.23254	0.079803	-0.006256	-0.007324
36.305	0.011749	0.008545	0.036621	-0.001831	0.0383	-0.078278	-0.069427	0.001526	0.01709	0.030975	-0.11566	0.002289	-0.005341	-0.089111	0.13718	-0.013428	-0.09079	0.000305	-0.31357	-0.12497	0.090179	0.18875	-0.094452	0.2504	0.023499	-0.013733	-0.16861	-0.007477	0.088501	0.17319	-0.002441	-0.005188
36.306	-0.002289	0.022888	0.027466	0.007629	0.023041	-0.030518	-0.045166	0.010986	0.018616	0.021515	-0.12253	-0.000153	0.017242	-0.061646	0.11215	0.003662	-0.065155	0.034943	0.31311	-0.085449	0.85403	0.22644	-0.069275	-0.061646	-0.34485	-0.007019	-0.20111	-0.005493	0.066376	0.45563	-0.003052	-0.006561
36.307	0.006256	0.00351	-0.043182	0.016174	0.010376	-0.026245	-0.052338	-0.007477	0.028839	0.019531	-0.015106	-0.001068	0.05127	-0.011444	0.099335	-0.000763	-0.10346	0.014801	0.11398	0.001984	0.75485	0.23956	-0.2211	-0.35339	-0.19577	-0.009766	-0.17242	-0.014191	0.012054	0.84839	-0.002136	-0.010071
